<?xml version="1.0" encoding="UTF-8"?>
<svg id="Layer_2" data-name="Layer 2" xmlns="http://www.w3.org/2000/svg" viewBox="0 0 180.36 401.51">
  <defs>
    <style>
      .cls-1, .cls-2 {
        fill: none;
      }

      .cls-2 {
        stroke: #000;
        stroke-miterlimit: 10;
        stroke-width: 15px;
      }
    </style>
  </defs>
  <g id="Layer_1-2" data-name="Layer 1">
    <g>
      <path d="M90.18,180.36C40.46,180.36,0,139.91,0,90.18S40.46,0,90.18,0s90.18,40.46,90.18,90.18-40.46,90.18-90.18,90.18Zm0-169.36C46.52,11,11,46.52,11,90.18s35.52,79.18,79.18,79.18,79.18-35.52,79.18-79.18S133.84,11,90.18,11Z"/>
      <g>
        <path class="cls-1" d="M90.18,147.32c8.4,0,15.2,6.81,15.2,15.2v5.36c36.41-7.11,63.98-39.24,63.98-77.7,0-43.66-35.52-79.18-79.18-79.18S11,46.52,11,90.18c0,38.46,27.57,70.59,63.98,77.7v-5.36c0-8.4,6.81-15.2,15.2-15.2Z"/>
        <path class="cls-2" d="M74.98,179.07v199.74c0,8.4,6.81,15.2,15.2,15.2s15.2-6.81,15.2-15.2V179.07c-4.94,.84-10.02,1.29-15.2,1.29s-10.26-.45-15.2-1.29Z"/>
      </g>
    </g>
  </g>
</svg>